<svg id="svg" version="1.1" xmlns="http://www.w3.org/2000/svg" xmlns:xlink="http://www.w3.org/1999/xlink" width="400" height="201.27388535031847" viewBox="0, 0, 400,201.27388535031847"><g id="svgg"><path id="path0" d="M159.236 12.904 C 150.155 15.607,135.386 22.859,129.678 27.419 C 127.434 29.211,120.555 32.260,114.392 34.195 L 103.185 37.713 114.013 37.965 C 124.878 38.217,126.161 39.455,123.294 46.925 C 122.209 49.754,118.411 50.955,110.555 50.955 L 99.363 50.955 99.363 88.408 C 99.363 127.529,94.951 137.935,93.039 103.323 C 92.432 92.327,90.634 84.552,88.036 81.681 C 84.468 77.738,84.416 76.361,87.605 70.214 C 90.970 63.728,90.133 53.599,85.632 46.315 C 84.864 45.073,87.353 42.484,91.163 40.561 L 98.089 37.065 87.898 36.181 C 82.293 35.695,60.223 33.313,38.854 30.889 C 17.484 28.464,0.000 27.348,0.000 28.407 C 0.000 37.219,6.352 42.822,18.110 44.382 C 30.415 46.014,30.578 46.155,30.910 55.502 C 31.096 60.708,31.956 82.739,32.821 104.459 L 34.395 143.949 64.626 144.669 C 91.139 145.301,95.291 144.831,98.379 140.848 C 101.684 136.583,102.317 136.772,108.731 143.949 C 112.489 148.153,116.623 151.266,117.918 150.867 C 124.241 148.921,129.910 153.358,128.463 159.122 C 127.373 163.464,128.554 166.138,132.917 169.209 C 138.155 172.896,138.950 172.930,139.677 169.496 C 140.130 167.356,141.527 165.605,142.782 165.605 C 144.037 165.605,144.433 163.964,143.664 161.959 C 142.492 158.906,143.749 158.768,151.387 161.113 C 156.404 162.652,160.510 165.363,160.510 167.136 C 160.510 169.090,163.616 170.272,168.396 170.136 C 176.431 169.907,180.783 173.778,180.853 181.217 C 180.924 188.742,187.973 192.381,193.242 187.613 C 199.443 182.001,200.157 182.235,203.822 191.083 C 207.152 199.122,211.465 201.329,211.465 194.994 C 211.465 190.289,219.450 185.906,227.197 186.360 C 230.455 186.550,236.163 185.875,239.881 184.859 C 245.036 183.450,247.286 184.120,249.358 187.684 C 250.852 190.254,252.109 191.278,252.152 189.959 C 252.194 188.640,253.662 189.417,255.414 191.685 C 261.364 199.389,271.467 198.560,270.518 190.446 C 269.961 185.677,270.867 183.439,273.355 183.439 C 275.766 183.439,278.121 178.209,280.271 168.075 C 282.064 159.625,285.160 151.800,287.150 150.687 C 290.226 148.965,290.171 148.167,286.785 145.357 C 284.595 143.539,282.803 138.820,282.803 134.870 C 282.803 119.293,291.651 126.288,292.675 142.675 C 292.960 147.227,294.798 147.771,309.904 147.771 L 326.815 147.771 325.290 126.752 L 323.766 105.732 328.726 112.102 C 331.454 115.605,337.428 125.633,342.002 134.385 C 351.807 153.147,350.848 152.901,366.783 140.764 C 382.194 129.027,382.219 131.923,366.470 104.224 L 353.322 81.099 360.737 75.118 C 374.696 63.860,363.504 58.500,348.876 69.437 C 342.663 74.083,334.314 79.951,330.323 82.477 L 323.066 87.070 323.953 73.471 L 324.841 59.873 307.006 58.054 C 297.197 57.054,287.331 56.792,285.081 57.472 C 280.925 58.728,272.611 42.055,272.611 32.464 C 272.611 25.765,260.208 20.822,249.682 23.326 C 244.777 24.493,231.019 25.429,219.108 25.405 C 207.197 25.381,193.439 25.675,188.535 26.057 C 180.685 26.668,179.161 25.767,175.796 18.526 C 171.696 9.701,170.902 9.432,159.236 12.904 M187.906 61.247 C 199.830 73.914,210.420 83.946,211.440 83.540 C 212.460 83.135,219.230 75.637,226.485 66.879 C 240.175 50.354,242.830 49.203,259.554 52.548 L 267.516 54.140 267.516 99.257 C 267.516 152.354,270.444 146.686,243.536 145.673 L 221.656 144.849 221.581 118.921 L 221.507 92.994 214.575 100.714 C 210.763 104.959,202.880 114.131,197.057 121.095 L 186.471 133.756 169.032 117.197 L 151.592 100.637 150.863 121.026 C 150.166 140.497,149.802 141.604,142.785 145.632 L 135.437 149.849 134.598 118.496 C 133.915 93.010,132.924 86.222,129.299 82.224 C 126.847 79.519,124.939 76.250,125.059 74.959 C 125.249 72.906,162.796 38.741,165.278 38.361 C 165.799 38.282,175.982 48.580,187.906 61.247 M285.350 96.966 C 285.350 110.005,284.421 116.924,282.803 115.924 C 281.401 115.058,280.255 109.795,280.255 104.228 C 280.255 97.582,278.943 93.604,276.433 92.641 C 269.097 89.826,273.729 76.433,282.038 76.433 C 284.482 76.433,285.350 81.817,285.350 96.966 " stroke="none" fill="#000000" fill-rule="evenodd"></path></g></svg>
