<?xml version="1.0" standalone="no"?>
<!DOCTYPE svg PUBLIC "-//W3C//DTD SVG 20010904//EN"
 "http://www.w3.org/TR/2001/REC-SVG-20010904/DTD/svg10.dtd">
<svg version="1.0" xmlns="http://www.w3.org/2000/svg"
 width="157.000000pt" height="79.000000pt" viewBox="0 0 157.000000 79.000000"
 preserveAspectRatio="xMidYMid meet">

<g transform="translate(0.000000,79.000000) scale(0.100000,-0.100000)"
fill="#000000" stroke="none">
<path d="M0 745 l0 -46 29 22 c16 12 34 18 40 14 19 -11 268 -43 356 -46 26
-1 89 21 108 38 26 23 60 39 107 52 24 6 -71 9 -302 10 l-338 1 0 -45z"/>
<path d="M710 783 c14 -3 36 -12 50 -22 27 -17 154 -21 255 -7 48 6 52 5 98
-34 35 -31 47 -49 47 -69 0 -27 2 -28 87 -39 88 -12 103 -20 103 -59 0 -31 8
-29 51 13 l37 36 31 -23 c38 -28 41 -62 6 -85 l-25 -16 31 -43 c17 -24 44 -56
60 -71 l29 -28 0 227 0 227 -442 -1 c-244 -1 -432 -4 -418 -6z"/>
<path d="M625 739 c-36 -10 -94 -39 -117 -57 -9 -8 -36 -20 -60 -27 l-43 -14
43 0 c42 -1 47 -6 36 -35 -4 -11 -19 -16 -50 -16 l-44 0 0 -147 c0 -103 -3
-144 -11 -136 -5 5 -12 40 -14 77 -2 44 -9 74 -19 85 -14 16 -15 21 -2 45 13
26 10 66 -9 96 -3 5 6 15 22 22 25 10 13 13 -102 25 -72 7 -158 17 -192 21
l-63 9 0 -344 0 -343 385 0 c377 0 385 0 373 19 -9 15 -9 23 1 35 8 9 17 16
21 16 10 0 31 -50 25 -61 -4 -5 1 -9 9 -9 9 0 16 8 16 19 0 26 22 42 56 40 16
-1 41 2 56 6 22 5 29 3 34 -10 9 -22 -11 -35 -56 -35 -19 0 -42 -5 -50 -10
-10 -7 18 -10 88 -10 107 0 106 0 102 48 -1 13 4 22 13 22 9 0 18 20 26 55 7
30 19 61 26 69 12 12 12 16 0 26 -8 7 -15 25 -15 41 0 61 35 33 39 -31 1 -18
8 -20 67 -20 l67 0 -7 82 c-8 97 -4 96 58 -13 22 -40 46 -74 51 -75 6 -2 32
16 58 39 l48 42 -52 94 -52 93 29 23 c25 20 27 25 15 39 -12 14 -19 12 -75
-27 -94 -67 -88 -66 -85 -6 l3 54 -69 7 c-39 4 -77 5 -86 2 -12 -3 -21 8 -33
39 -9 23 -16 50 -16 60 0 26 -49 45 -90 35 -19 -4 -73 -8 -120 -8 -47 0 -101
-1 -120 -2 -31 -3 -37 1 -50 29 -16 35 -19 36 -65 22z m113 -189 c46 -50 88
-89 92 -88 4 2 31 31 60 66 54 64 64 69 129 56 l31 -6 0 -178 c0 -107 -4 -180
-10 -182 -5 -1 -46 -2 -90 0 l-80 4 0 101 -1 102 -27 -30 c-15 -17 -46 -53
-69 -80 l-41 -50 -69 65 -68 65 -3 -80 c-3 -77 -4 -81 -32 -97 l-30 -17 0 118
c0 103 -3 122 -20 144 -11 14 -20 29 -19 34 1 7 149 141 158 142 2 1 42 -40
89 -89z m382 -141 c0 -51 -4 -78 -10 -74 -5 3 -10 23 -10 44 0 28 -6 42 -20
52 -19 13 -20 16 -5 37 9 12 23 22 31 22 11 0 14 -17 14 -81z m-698 -176 c10
-9 18 -20 18 -25 0 -12 -267 -10 -275 2 -4 6 33 10 103 10 88 0 111 3 116 15
7 19 15 19 38 -2z m82 -42 c4 -5 3 -16 0 -24 -5 -13 -8 -13 -25 4 -10 10 -19
21 -19 24 0 9 39 5 44 -4z m123 -55 c-1 -6 13 -12 32 -13 33 -1 51 -15 51 -40
0 -18 -29 -16 -36 2 -5 11 -21 15 -60 15 -42 0 -56 4 -61 17 -4 9 -2 18 5 21
6 2 9 9 6 17 -5 11 1 12 30 3 19 -6 34 -16 33 -22z"/>
<path d="M1525 272 c-22 -20 -51 -45 -65 -55 l-25 -18 40 7 c22 3 37 3 34 0
-16 -17 -126 -37 -223 -41 -117 -5 -135 -13 -136 -63 0 -15 -7 -26 -20 -29
-15 -4 -17 -9 -10 -23 6 -10 7 -26 4 -34 -5 -14 18 -16 220 -16 l226 0 0 155
c0 85 -1 155 -2 155 -2 0 -21 -17 -43 -38z"/>
</g>
</svg>
